<?xml version="1.0" encoding="utf-8"?><svg xml:space="preserve" viewBox="0 0 100 100" y="0" x="0" xmlns="http://www.w3.org/2000/svg" id="圖層_1" version="1.1" width="200px" height="200px" xmlns:xlink="http://www.w3.org/1999/xlink" style="width:100%;height:100%;background-size:initial;background-repeat-y:initial;background-repeat-x:initial;background-position-y:initial;background-position-x:initial;background-origin:initial;background-image:initial;background-color:rgb(255, 255, 255);background-clip:initial;background-attachment:initial;animation-play-state:paused" ><g class="ldl-scale" style="transform-origin:50% 50%;transform:rotate(0deg) scale(0.8, 0.8);animation-play-state:paused" ><path fill="red" d="M60.27 46.299A23.131 23.131 0 0 0 50 43.902c-3.704 0-7.189.875-10.27 2.397C32.473 49.884 27.5 57.13 27.5 65.505v14.467c0 2.984 2.52 5.403 5.628 5.403h33.745c3.108 0 5.628-2.419 5.628-5.403V65.505C72.5 57.13 67.527 49.884 60.27 46.299z" style="fill:rgb(255, 0, 0);animation-play-state:paused" ></path>
<circle fill="#c7b299" r="14.513" cy="34.388" cx="50" style="fill:rgb(199, 178, 153);animation-play-state:paused" ></circle>
<path fill="#feae01" d="M61.375 25.529v-5.624c0-1.974-1.341-3.686-3.248-4.195-5.418-1.446-10.836-1.446-16.253 0-1.907.509-3.248 2.221-3.248 4.195v5.624c2.658-1.87 6.761-3.073 11.375-3.073s8.716 1.203 11.374 3.073z" style="fill:rgb(254, 174, 1);animation-play-state:paused" ></path>
<path fill="#e62b0f" d="M59.365 28.792l2.01-3.263c-2.658-1.87-6.761-3.073-11.375-3.073s-8.717 1.203-11.375 3.073l2.01 3.263c.332.538 1.018.71 1.582.424 5.188-2.622 10.377-2.622 15.565 0 .565.286 1.252.114 1.583-.424z" style="fill:rgb(230, 43, 15);animation-play-state:paused" ></path>
<path fill="#f2e336" d="M65.613 64.638H52.827a1.025 1.025 0 0 1-1.025-1.025v-2.785c0-.566.459-1.025 1.025-1.025h12.786c.566 0 1.025.459 1.025 1.025v2.785c0 .566-.459 1.025-1.025 1.025z" style="fill:rgb(242, 227, 54);animation-play-state:paused" ></path>
<metadata xmlns:d="https://loading.io/stock/" style="animation-play-state:paused" ><d:name style="animation-play-state:paused" >mcdonald</d:name>
<d:tags style="animation-play-state:paused" >waiter,fast food,burger king,KFC,cashier,waitress,mcdonald,people</d:tags>
<d:license style="animation-play-state:paused" >pro</d:license>
<d:slug style="animation-play-state:paused" >kgd36z</d:slug></metadata></g><!-- generated by https://loading.io/ --></svg>